# MagicaVoxel @ Ephtracy

# group
g Cultist mask

# material
mtllib Cultist mask.mtl
usemtl palette

# normals
vn -1 0 0
vn 1 0 0
vn 0 0 1
vn 0 0 -1
vn 0 -1 0
vn 0 1 0

# texcoords
vt 0.0449219 0.5
vt 0.841797 0.5
vt 0.982422 0.5
vt 0.994141 0.5

# verts
v -1 3 5
v -1 3 -5
v -1 7 8
v -1 7 7
v -1 7 -7
v -1 7 -8
v -1 9 10
v -1 9 8
v -1 9 7
v -1 9 5
v -1 9 -5
v -1 9 -7
v -1 9 -8
v -1 9 -10
v -1 10 10
v -1 10 8
v -1 10 7
v -1 10 5
v -1 10 -5
v -1 10 -7
v -1 10 -8
v -1 10 -10
v -1 13 8
v -1 13 7
v -1 13 6
v -1 13 5
v -1 13 2
v -1 13 1
v -1 13 -1
v -1 13 -2
v -1 13 -5
v -1 13 -6
v -1 13 -7
v -1 13 -8
v -1 14 7
v -1 14 6
v -1 14 5
v -1 14 -5
v -1 14 -6
v -1 14 -7
v -1 15 6
v -1 15 5
v -1 15 4
v -1 15 -4
v -1 15 -5
v -1 15 -6
v -1 16 5
v -1 16 4
v -1 16 2
v -1 16 1
v -1 16 -1
v -1 16 -2
v -1 16 -4
v -1 16 -5
v -1 17 4
v -1 17 2
v -1 17 1
v -1 17 -1
v -1 17 -2
v -1 17 -4
v -1 19 2
v -1 19 1
v -1 19 -1
v -1 19 -2
v 0 13 6
v 0 13 5
v 0 13 4
v 0 13 -4
v 0 13 -5
v 0 13 -6
v 0 14 7
v 0 14 6
v 0 14 5
v 0 14 4
v 0 14 -4
v 0 14 -5
v 0 14 -6
v 0 14 -7
v 0 15 7
v 0 15 6
v 0 15 -6
v 0 15 -7
v 0 7 8
v 0 7 7
v 0 7 -7
v 0 7 -8
v 0 9 10
v 0 9 8
v 0 9 7
v 0 9 5
v 0 9 -5
v 0 9 -7
v 0 9 -8
v 0 9 -10
v 0 10 10
v 0 10 8
v 0 10 7
v 0 10 5
v 0 10 -5
v 0 10 -7
v 0 10 -8
v 0 10 -10
v 0 13 8
v 0 13 7
v 0 13 6
v 0 13 2
v 0 13 1
v 0 13 -1
v 0 13 -2
v 0 13 -6
v 0 13 -7
v 0 13 -8
v 0 14 7
v 0 14 6
v 0 14 -6
v 0 14 -7
v 0 15 5
v 0 15 4
v 0 15 -4
v 0 15 -5
v 0 16 5
v 0 16 4
v 0 16 2
v 0 16 1
v 0 16 -1
v 0 16 -2
v 0 16 -4
v 0 16 -5
v 0 17 4
v 0 17 2
v 0 17 1
v 0 17 -1
v 0 17 -2
v 0 17 -4
v 0 19 2
v 0 19 1
v 0 19 -1
v 0 19 -2
v 1 3 5
v 1 3 -5
v 1 4 3
v 1 4 2
v 1 4 1
v 1 4 -0
v 1 4 -1
v 1 4 -2
v 1 4 -3
v 1 4 -4
v 1 5 4
v 1 5 3
v 1 5 2
v 1 5 1
v 1 5 -0
v 1 5 -1
v 1 5 -2
v 1 5 -3
v 1 5 -4
v 1 6 4
v 1 6 3
v 1 6 2
v 1 6 1
v 1 6 -0
v 1 6 -1
v 1 6 -2
v 1 6 -3
v 1 7 1
v 1 7 -1
v 1 8 3
v 1 8 1
v 1 8 -1
v 1 8 -3
v 1 10 3
v 1 10 1
v 1 10 -1
v 1 10 -3
v 1 11 4
v 1 11 3
v 1 11 2
v 1 11 1
v 1 11 -1
v 1 11 -2
v 1 11 -3
v 1 11 -4
v 1 12 5
v 1 12 4
v 1 12 3
v 1 12 2
v 1 12 -2
v 1 12 -3
v 1 12 -4
v 1 12 -5
v 1 13 6
v 1 13 5
v 1 13 4
v 1 13 3
v 1 13 -3
v 1 13 -4
v 1 13 -5
v 1 13 -6
v 1 14 7
v 1 14 6
v 1 14 5
v 1 14 4
v 1 14 -4
v 1 14 -5
v 1 14 -6
v 1 14 -7
v 1 15 7
v 1 15 5
v 1 15 -5
v 1 15 -7
v -1 9 10
v -1 10 10
v 0 9 10
v 0 10 10
v -1 7 8
v -1 9 8
v -1 10 8
v -1 13 8
v 0 7 8
v 0 9 8
v 0 10 8
v 0 13 8
v -1 13 7
v -1 14 7
v 0 13 7
v 0 14 7
v 0 15 7
v 1 14 7
v 1 15 7
v -1 14 6
v -1 15 6
v 0 13 6
v 0 14 6
v 0 15 6
v 1 13 6
v 1 14 6
v -1 3 5
v -1 9 5
v -1 10 5
v -1 13 5
v -1 15 5
v -1 16 5
v 0 9 5
v 0 10 5
v 0 12 5
v 0 13 5
v 0 15 5
v 0 16 5
v 1 3 5
v 1 12 5
v 1 13 5
v -1 16 4
v -1 17 4
v 0 16 4
v 0 17 4
v -1 13 2
v -1 16 2
v -1 17 2
v -1 19 2
v 0 13 2
v 0 16 2
v 0 17 2
v 0 19 2
v -1 13 -1
v -1 16 -1
v -1 17 -1
v -1 19 -1
v 0 13 -1
v 0 16 -1
v 0 17 -1
v 0 19 -1
v -1 15 -4
v -1 16 -4
v 0 13 -4
v 0 14 -4
v 0 15 -4
v 0 16 -4
v 1 13 -4
v 1 14 -4
v -1 14 -5
v -1 15 -5
v 0 14 -5
v 0 15 -5
v 1 14 -5
v 1 15 -5
v -1 13 -6
v -1 14 -6
v 0 13 -6
v 0 14 -6
v -1 7 -7
v -1 9 -7
v -1 10 -7
v -1 13 -7
v 0 7 -7
v 0 9 -7
v 0 10 -7
v 0 13 -7
v -1 7 7
v -1 9 7
v -1 10 7
v -1 13 7
v 0 7 7
v 0 9 7
v 0 10 7
v 0 13 7
v -1 13 6
v -1 14 6
v 0 13 6
v 0 14 6
v -1 14 5
v -1 15 5
v 0 14 5
v 0 15 5
v 1 14 5
v 1 15 5
v -1 15 4
v -1 16 4
v 0 13 4
v 0 14 4
v 0 15 4
v 0 16 4
v 1 13 4
v 1 14 4
v -1 13 1
v -1 16 1
v -1 17 1
v -1 19 1
v 0 13 1
v 0 16 1
v 0 17 1
v 0 19 1
v -1 13 -2
v -1 16 -2
v -1 17 -2
v -1 19 -2
v 0 13 -2
v 0 16 -2
v 0 17 -2
v 0 19 -2
v -1 16 -4
v -1 17 -4
v 0 16 -4
v 0 17 -4
v -1 3 -5
v -1 9 -5
v -1 10 -5
v -1 13 -5
v -1 15 -5
v -1 16 -5
v 0 9 -5
v 0 10 -5
v 0 12 -5
v 0 13 -5
v 0 15 -5
v 0 16 -5
v 1 3 -5
v 1 12 -5
v 1 13 -5
v -1 14 -6
v -1 15 -6
v 0 13 -6
v 0 14 -6
v 0 15 -6
v 1 13 -6
v 1 14 -6
v -1 13 -7
v -1 14 -7
v 0 13 -7
v 0 14 -7
v 0 15 -7
v 1 14 -7
v 1 15 -7
v -1 7 -8
v -1 9 -8
v -1 10 -8
v -1 13 -8
v 0 7 -8
v 0 9 -8
v 0 10 -8
v 0 13 -8
v -1 9 -10
v -1 10 -10
v 0 9 -10
v 0 10 -10
v -1 3 5
v 1 3 5
v -1 3 -5
v 1 3 -5
v -1 7 8
v 0 7 8
v -1 7 7
v 0 7 7
v -1 7 -7
v 0 7 -7
v -1 7 -8
v 0 7 -8
v -1 9 10
v 0 9 10
v -1 9 8
v 0 9 8
v -1 9 7
v 0 9 7
v -1 9 5
v 0 9 5
v -1 9 -5
v 0 9 -5
v -1 9 -7
v 0 9 -7
v -1 9 -8
v 0 9 -8
v -1 9 -10
v 0 9 -10
v -1 13 7
v 0 13 7
v -1 13 6
v 0 13 6
v 1 13 6
v 0 13 5
v 1 13 5
v 0 13 -5
v 1 13 -5
v -1 13 -6
v 0 13 -6
v 1 13 -6
v -1 13 -7
v 0 13 -7
v 0 14 7
v 1 14 7
v -1 14 6
v 0 14 6
v 1 14 6
v -1 14 5
v 0 14 5
v -1 14 -5
v 0 14 -5
v -1 14 -6
v 0 14 -6
v 1 14 -6
v 0 14 -7
v 1 14 -7
v -1 15 5
v 0 15 5
v -1 15 4
v 0 15 4
v -1 15 -4
v 0 15 -4
v -1 15 -5
v 0 15 -5
v -1 16 4
v 0 16 4
v -1 16 2
v 0 16 2
v -1 16 1
v 0 16 1
v -1 16 -1
v 0 16 -1
v -1 16 -2
v 0 16 -2
v -1 16 -4
v 0 16 -4
v -1 10 10
v 0 10 10
v -1 10 8
v 0 10 8
v -1 10 7
v 0 10 7
v -1 10 5
v 0 10 5
v -1 10 -5
v 0 10 -5
v -1 10 -7
v 0 10 -7
v -1 10 -8
v 0 10 -8
v -1 10 -10
v 0 10 -10
v -1 13 8
v 0 13 8
v -1 13 7
v 0 13 7
v -1 13 5
v 0 13 5
v 0 13 4
v 1 13 4
v 0 13 3
v 1 13 3
v -1 13 2
v 0 13 2
v -1 13 1
v 0 13 1
v -1 13 -1
v 0 13 -1
v -1 13 -2
v 0 13 -2
v 0 13 -3
v 1 13 -3
v 0 13 -4
v 1 13 -4
v -1 13 -5
v 0 13 -5
v -1 13 -7
v 0 13 -7
v -1 13 -8
v 0 13 -8
v -1 14 7
v 0 14 7
v -1 14 6
v 0 14 6
v 0 14 5
v 1 14 5
v 0 14 4
v 1 14 4
v 0 14 -4
v 1 14 -4
v 0 14 -5
v 1 14 -5
v -1 14 -6
v 0 14 -6
v -1 14 -7
v 0 14 -7
v 0 15 7
v 1 15 7
v -1 15 6
v 0 15 6
v -1 15 5
v 0 15 5
v 1 15 5
v -1 15 -5
v 0 15 -5
v 1 15 -5
v -1 15 -6
v 0 15 -6
v 0 15 -7
v 1 15 -7
v -1 16 5
v 0 16 5
v -1 16 4
v 0 16 4
v -1 16 -4
v 0 16 -4
v -1 16 -5
v 0 16 -5
v -1 17 4
v 0 17 4
v -1 17 2
v 0 17 2
v -1 17 1
v 0 17 1
v -1 17 -1
v 0 17 -1
v -1 17 -2
v 0 17 -2
v -1 17 -4
v 0 17 -4
v -1 19 2
v 0 19 2
v -1 19 1
v 0 19 1
v -1 19 -1
v 0 19 -1
v -1 19 -2
v 0 19 -2

# faces
f 8/1/1 4/1/1 3/1/1
f 9/1/1 4/1/1 8/1/1
f 10/3/1 2/3/1 1/3/1
f 11/3/1 2/3/1 10/3/1
f 12/1/1 6/1/1 5/1/1
f 13/1/1 6/1/1 12/1/1
f 15/1/1 9/1/1 8/1/1
f 15/1/1 8/1/1 7/1/1
f 15/1/1 10/1/1 9/1/1
f 16/1/1 10/1/1 15/1/1
f 17/1/1 10/1/1 16/1/1
f 18/3/1 11/3/1 10/3/1
f 18/1/1 10/1/1 17/1/1
f 19/1/1 14/1/1 13/1/1
f 19/3/1 11/3/1 18/3/1
f 19/1/1 13/1/1 12/1/1
f 19/1/1 12/1/1 11/1/1
f 20/1/1 14/1/1 19/1/1
f 21/1/1 14/1/1 20/1/1
f 22/1/1 14/1/1 21/1/1
f 23/1/1 17/1/1 16/1/1
f 24/1/1 17/1/1 23/1/1
f 26/3/1 19/3/1 18/3/1
f 27/3/1 19/3/1 26/3/1
f 28/3/1 19/3/1 27/3/1
f 29/3/1 19/3/1 28/3/1
f 30/3/1 19/3/1 29/3/1
f 31/3/1 19/3/1 30/3/1
f 33/1/1 21/1/1 20/1/1
f 34/1/1 21/1/1 33/1/1
f 35/1/1 25/1/1 24/1/1
f 36/1/1 25/1/1 35/1/1
f 39/1/1 33/1/1 32/1/1
f 40/1/1 33/1/1 39/1/1
f 41/1/1 37/1/1 36/1/1
f 42/1/1 37/1/1 41/1/1
f 45/1/1 39/1/1 38/1/1
f 46/1/1 39/1/1 45/1/1
f 47/1/1 43/1/1 42/1/1
f 48/1/1 43/1/1 47/1/1
f 49/1/1 28/1/1 27/1/1
f 50/1/1 28/1/1 49/1/1
f 51/1/1 30/1/1 29/1/1
f 52/1/1 30/1/1 51/1/1
f 53/1/1 45/1/1 44/1/1
f 54/1/1 45/1/1 53/1/1
f 55/1/1 50/1/1 49/1/1
f 55/1/1 53/1/1 52/1/1
f 55/1/1 52/1/1 51/1/1
f 55/1/1 51/1/1 50/1/1
f 55/1/1 49/1/1 48/1/1
f 56/1/1 53/1/1 55/1/1
f 57/1/1 53/1/1 56/1/1
f 58/1/1 53/1/1 57/1/1
f 59/1/1 53/1/1 58/1/1
f 60/1/1 53/1/1 59/1/1
f 61/1/1 57/1/1 56/1/1
f 62/1/1 57/1/1 61/1/1
f 63/1/1 59/1/1 58/1/1
f 64/1/1 59/1/1 63/1/1
f 72/4/1 66/4/1 65/4/1
f 72/4/1 67/4/1 66/4/1
f 73/4/1 67/4/1 72/4/1
f 74/4/1 67/4/1 73/4/1
f 75/4/1 70/4/1 69/4/1
f 75/4/1 69/4/1 68/4/1
f 76/4/1 70/4/1 75/4/1
f 77/4/1 70/4/1 76/4/1
f 79/4/1 72/4/1 71/4/1
f 80/4/1 72/4/1 79/4/1
f 81/4/1 78/4/1 77/4/1
f 82/4/1 78/4/1 81/4/1
f 83/1/2 84/1/2 88/1/2
f 88/1/2 84/1/2 89/1/2
f 85/1/2 86/1/2 92/1/2
f 92/1/2 86/1/2 93/1/2
f 89/1/2 90/1/2 95/1/2
f 87/1/2 88/1/2 95/1/2
f 88/1/2 89/1/2 95/1/2
f 95/1/2 90/1/2 96/1/2
f 96/1/2 90/1/2 97/1/2
f 97/1/2 90/1/2 98/1/2
f 93/1/2 94/1/2 99/1/2
f 92/1/2 93/1/2 99/1/2
f 91/1/2 92/1/2 99/1/2
f 99/1/2 94/1/2 100/1/2
f 100/1/2 94/1/2 101/1/2
f 101/1/2 94/1/2 102/1/2
f 96/1/2 97/1/2 103/1/2
f 103/1/2 97/1/2 104/1/2
f 100/1/2 101/1/2 111/1/2
f 111/1/2 101/1/2 112/1/2
f 104/1/2 105/1/2 113/1/2
f 113/1/2 105/1/2 114/1/2
f 110/1/2 111/1/2 115/1/2
f 115/1/2 111/1/2 116/1/2
f 117/1/2 118/1/2 121/1/2
f 121/1/2 118/1/2 122/1/2
f 106/1/2 107/1/2 123/1/2
f 123/1/2 107/1/2 124/1/2
f 108/1/2 109/1/2 125/1/2
f 125/1/2 109/1/2 126/1/2
f 119/1/2 120/1/2 127/1/2
f 127/1/2 120/1/2 128/1/2
f 123/1/2 124/1/2 129/1/2
f 126/1/2 127/1/2 129/1/2
f 125/1/2 126/1/2 129/1/2
f 124/1/2 125/1/2 129/1/2
f 122/1/2 123/1/2 129/1/2
f 129/1/2 127/1/2 130/1/2
f 130/1/2 127/1/2 131/1/2
f 131/1/2 127/1/2 132/1/2
f 132/1/2 127/1/2 133/1/2
f 133/1/2 127/1/2 134/1/2
f 130/1/2 131/1/2 135/1/2
f 135/1/2 131/1/2 136/1/2
f 132/1/2 133/1/2 137/1/2
f 137/1/2 133/1/2 138/1/2
f 139/3/2 140/3/2 141/3/2
f 141/3/2 140/3/2 142/3/2
f 142/3/2 140/3/2 143/3/2
f 143/3/2 140/3/2 144/3/2
f 144/3/2 140/3/2 145/3/2
f 145/3/2 140/3/2 146/3/2
f 146/3/2 140/3/2 147/3/2
f 147/3/2 140/3/2 148/3/2
f 139/3/2 141/3/2 149/3/2
f 141/4/2 142/4/2 150/4/2
f 149/3/2 141/3/2 150/3/2
f 142/3/2 143/3/2 151/3/2
f 150/4/2 142/4/2 151/4/2
f 143/4/2 144/4/2 152/4/2
f 151/3/2 143/3/2 152/3/2
f 144/3/2 145/3/2 153/3/2
f 152/4/2 144/4/2 153/4/2
f 145/4/2 146/4/2 154/4/2
f 153/3/2 145/3/2 154/3/2
f 146/3/2 147/3/2 155/3/2
f 154/4/2 146/4/2 155/4/2
f 147/4/2 148/4/2 156/4/2
f 155/3/2 147/3/2 156/3/2
f 148/3/2 140/3/2 157/3/2
f 156/4/2 148/4/2 157/4/2
f 139/3/2 149/3/2 158/3/2
f 149/4/2 150/4/2 158/4/2
f 150/3/2 151/3/2 159/3/2
f 158/4/2 150/4/2 159/4/2
f 151/4/2 152/4/2 160/4/2
f 159/3/2 151/3/2 160/3/2
f 152/3/2 153/3/2 161/3/2
f 160/4/2 152/4/2 161/4/2
f 153/4/2 154/4/2 162/4/2
f 161/3/2 153/3/2 162/3/2
f 154/3/2 155/3/2 163/3/2
f 162/4/2 154/4/2 163/4/2
f 155/4/2 156/4/2 164/4/2
f 163/3/2 155/3/2 164/3/2
f 156/3/2 157/3/2 165/3/2
f 164/4/2 156/4/2 165/4/2
f 162/3/2 163/3/2 166/3/2
f 163/3/2 164/3/2 166/3/2
f 164/3/2 165/3/2 166/3/2
f 161/3/2 162/3/2 166/3/2
f 160/3/2 161/3/2 166/3/2
f 159/3/2 160/3/2 166/3/2
f 158/3/2 159/3/2 166/3/2
f 166/3/2 165/3/2 167/3/2
f 158/3/2 166/3/2 168/3/2
f 166/4/2 167/4/2 169/4/2
f 168/3/2 166/3/2 169/3/2
f 167/3/2 165/3/2 170/3/2
f 169/4/2 167/4/2 170/4/2
f 165/3/2 157/3/2 171/3/2
f 170/3/2 165/3/2 171/3/2
f 168/2/2 169/2/2 172/2/2
f 158/3/2 168/3/2 172/3/2
f 169/3/2 170/3/2 173/3/2
f 172/2/2 169/2/2 173/2/2
f 170/2/2 171/2/2 174/2/2
f 173/3/2 170/3/2 174/3/2
f 171/3/2 157/3/2 175/3/2
f 174/2/2 171/2/2 175/2/2
f 158/3/2 172/3/2 176/3/2
f 139/3/2 158/3/2 176/3/2
f 172/4/2 173/4/2 177/4/2
f 176/3/2 172/3/2 177/3/2
f 177/4/2 173/4/2 178/4/2
f 173/3/2 174/3/2 179/3/2
f 178/4/2 173/4/2 179/4/2
f 174/4/2 175/4/2 180/4/2
f 179/3/2 174/3/2 180/3/2
f 180/4/2 175/4/2 181/4/2
f 175/3/2 157/3/2 182/3/2
f 181/4/2 175/4/2 182/4/2
f 157/3/2 140/3/2 183/3/2
f 182/3/2 157/3/2 183/3/2
f 139/3/2 176/3/2 184/3/2
f 177/4/2 178/4/2 185/4/2
f 184/3/2 176/3/2 185/3/2
f 176/4/2 177/4/2 185/4/2
f 185/4/2 178/4/2 186/4/2
f 180/3/2 181/3/2 187/3/2
f 186/4/2 178/4/2 187/4/2
f 178/3/2 179/3/2 187/3/2
f 179/3/2 180/3/2 187/3/2
f 181/4/2 182/4/2 188/4/2
f 187/3/2 181/3/2 188/3/2
f 182/4/2 183/4/2 188/4/2
f 188/4/2 183/4/2 189/4/2
f 183/3/2 140/3/2 190/3/2
f 189/4/2 183/4/2 190/4/2
f 190/3/2 140/3/2 191/3/2
f 185/4/2 186/4/2 193/4/2
f 184/4/2 185/4/2 193/4/2
f 193/4/2 186/4/2 194/4/2
f 186/3/2 187/3/2 195/3/2
f 194/4/2 186/4/2 195/4/2
f 188/3/2 189/3/2 195/3/2
f 187/3/2 188/3/2 195/3/2
f 190/4/2 191/4/2 196/4/2
f 195/3/2 189/3/2 196/3/2
f 189/4/2 190/4/2 196/4/2
f 196/4/2 191/4/2 197/4/2
f 197/4/2 191/4/2 198/4/2
f 193/4/2 194/4/2 201/4/2
f 192/4/2 193/4/2 201/4/2
f 201/4/2 194/4/2 202/4/2
f 202/4/2 194/4/2 203/4/2
f 197/4/2 198/4/2 204/4/2
f 198/4/2 199/4/2 204/4/2
f 204/4/2 199/4/2 205/4/2
f 205/4/2 199/4/2 206/4/2
f 201/4/2 202/4/2 208/4/2
f 200/4/2 201/4/2 208/4/2
f 208/4/2 202/4/2 209/4/2
f 206/4/2 207/4/2 210/4/2
f 205/4/2 206/4/2 210/4/2
f 210/4/2 207/4/2 211/4/2
f 214/1/3 213/1/3 212/1/3
f 215/1/3 213/1/3 214/1/3
f 220/1/3 217/1/3 216/1/3
f 221/1/3 217/1/3 220/1/3
f 222/1/3 219/1/3 218/1/3
f 223/1/3 219/1/3 222/1/3
f 226/1/3 225/1/3 224/1/3
f 227/1/3 225/1/3 226/1/3
f 229/4/3 228/4/3 227/4/3
f 230/4/3 228/4/3 229/4/3
f 234/1/3 232/1/3 231/1/3
f 235/1/3 232/1/3 234/1/3
f 236/4/3 234/4/3 233/4/3
f 237/4/3 234/4/3 236/4/3
f 244/3/3 239/3/3 238/3/3
f 245/3/3 241/3/3 240/3/3
f 246/3/3 241/3/3 245/3/3
f 247/3/3 241/3/3 246/3/3
f 248/1/3 243/1/3 242/1/3
f 249/1/3 243/1/3 248/1/3
f 250/3/3 244/3/3 238/3/3
f 250/3/3 245/3/3 244/3/3
f 250/3/3 246/3/3 245/3/3
f 251/4/3 247/4/3 246/4/3
f 251/3/3 246/3/3 250/3/3
f 252/4/3 247/4/3 251/4/3
f 255/1/3 254/1/3 253/1/3
f 256/1/3 254/1/3 255/1/3
f 261/1/3 258/1/3 257/1/3
f 262/1/3 258/1/3 261/1/3
f 263/1/3 260/1/3 259/1/3
f 264/1/3 260/1/3 263/1/3
f 269/1/3 266/1/3 265/1/3
f 270/1/3 266/1/3 269/1/3
f 271/1/3 268/1/3 267/1/3
f 272/1/3 268/1/3 271/1/3
f 277/1/3 274/1/3 273/1/3
f 278/1/3 274/1/3 277/1/3
f 279/4/3 276/4/3 275/4/3
f 280/4/3 276/4/3 279/4/3
f 283/1/3 282/1/3 281/1/3
f 284/1/3 282/1/3 283/1/3
f 285/4/3 284/4/3 283/4/3
f 286/4/3 284/4/3 285/4/3
f 289/1/3 288/1/3 287/1/3
f 290/1/3 288/1/3 289/1/3
f 295/1/3 292/1/3 291/1/3
f 296/1/3 292/1/3 295/1/3
f 297/1/3 294/1/3 293/1/3
f 298/1/3 294/1/3 297/1/3
f 299/1/4 300/1/4 303/1/4
f 303/1/4 300/1/4 304/1/4
f 301/1/4 302/1/4 305/1/4
f 305/1/4 302/1/4 306/1/4
f 307/1/4 308/1/4 309/1/4
f 309/1/4 308/1/4 310/1/4
f 311/1/4 312/1/4 313/1/4
f 313/1/4 312/1/4 314/1/4
f 313/4/4 314/4/4 315/4/4
f 315/4/4 314/4/4 316/4/4
f 317/1/4 318/1/4 321/1/4
f 321/1/4 318/1/4 322/1/4
f 319/4/4 320/4/4 323/4/4
f 323/4/4 320/4/4 324/4/4
f 325/1/4 326/1/4 329/1/4
f 329/1/4 326/1/4 330/1/4
f 327/1/4 328/1/4 331/1/4
f 331/1/4 328/1/4 332/1/4
f 333/1/4 334/1/4 337/1/4
f 337/1/4 334/1/4 338/1/4
f 335/1/4 336/1/4 339/1/4
f 339/1/4 336/1/4 340/1/4
f 341/1/4 342/1/4 343/1/4
f 343/1/4 342/1/4 344/1/4
f 345/3/4 346/3/4 351/3/4
f 347/3/4 348/3/4 352/3/4
f 352/3/4 348/3/4 353/3/4
f 353/3/4 348/3/4 354/3/4
f 349/1/4 350/1/4 355/1/4
f 355/1/4 350/1/4 356/1/4
f 345/3/4 351/3/4 357/3/4
f 351/3/4 352/3/4 357/3/4
f 352/3/4 353/3/4 357/3/4
f 353/4/4 354/4/4 358/4/4
f 357/3/4 353/3/4 358/3/4
f 358/4/4 354/4/4 359/4/4
f 360/1/4 361/1/4 363/1/4
f 363/1/4 361/1/4 364/1/4
f 362/4/4 363/4/4 365/4/4
f 365/4/4 363/4/4 366/4/4
f 367/1/4 368/1/4 369/1/4
f 369/1/4 368/1/4 370/1/4
f 370/4/4 371/4/4 372/4/4
f 372/4/4 371/4/4 373/4/4
f 374/1/4 375/1/4 378/1/4
f 378/1/4 375/1/4 379/1/4
f 376/1/4 377/1/4 380/1/4
f 380/1/4 377/1/4 381/1/4
f 382/1/4 383/1/4 384/1/4
f 384/1/4 383/1/4 385/1/4
f 388/3/5 387/3/5 386/3/5
f 389/3/5 387/3/5 388/3/5
f 392/1/5 391/1/5 390/1/5
f 393/1/5 391/1/5 392/1/5
f 396/1/5 395/1/5 394/1/5
f 397/1/5 395/1/5 396/1/5
f 400/1/5 399/1/5 398/1/5
f 401/1/5 399/1/5 400/1/5
f 404/1/5 403/1/5 402/1/5
f 405/1/5 403/1/5 404/1/5
f 408/1/5 407/1/5 406/1/5
f 409/1/5 407/1/5 408/1/5
f 412/1/5 411/1/5 410/1/5
f 413/1/5 411/1/5 412/1/5
f 416/1/5 415/1/5 414/1/5
f 417/1/5 415/1/5 416/1/5
f 419/4/5 418/4/5 417/4/5
f 420/4/5 418/4/5 419/4/5
f 424/4/5 422/4/5 421/4/5
f 425/4/5 422/4/5 424/4/5
f 426/1/5 424/1/5 423/1/5
f 427/1/5 424/1/5 426/1/5
f 431/4/5 429/4/5 428/4/5
f 432/4/5 429/4/5 431/4/5
f 433/1/5 431/1/5 430/1/5
f 434/1/5 431/1/5 433/1/5
f 437/1/5 436/1/5 435/1/5
f 438/1/5 436/1/5 437/1/5
f 440/4/5 439/4/5 438/4/5
f 441/4/5 439/4/5 440/4/5
f 444/1/5 443/1/5 442/1/5
f 445/1/5 443/1/5 444/1/5
f 448/1/5 447/1/5 446/1/5
f 449/1/5 447/1/5 448/1/5
f 452/1/5 451/1/5 450/1/5
f 453/1/5 451/1/5 452/1/5
f 456/1/5 455/1/5 454/1/5
f 457/1/5 455/1/5 456/1/5
f 460/1/5 459/1/5 458/1/5
f 461/1/5 459/1/5 460/1/5
f 462/1/6 463/1/6 464/1/6
f 464/1/6 463/1/6 465/1/6
f 466/1/6 467/1/6 468/1/6
f 468/1/6 467/1/6 469/1/6
f 470/1/6 471/1/6 472/1/6
f 472/1/6 471/1/6 473/1/6
f 474/1/6 475/1/6 476/1/6
f 476/1/6 475/1/6 477/1/6
f 478/1/6 479/1/6 480/1/6
f 480/1/6 479/1/6 481/1/6
f 482/3/6 483/3/6 484/3/6
f 482/3/6 484/3/6 486/3/6
f 484/4/6 485/4/6 486/4/6
f 486/4/6 485/4/6 487/4/6
f 482/3/6 486/3/6 488/3/6
f 486/3/6 487/3/6 488/3/6
f 488/3/6 487/3/6 489/3/6
f 489/3/6 487/3/6 491/3/6
f 490/3/6 491/3/6 492/3/6
f 491/3/6 487/3/6 493/3/6
f 492/3/6 491/3/6 493/3/6
f 493/3/6 487/3/6 495/3/6
f 495/3/6 487/3/6 496/3/6
f 494/3/6 495/3/6 496/3/6
f 496/3/6 487/3/6 497/3/6
f 494/3/6 496/3/6 498/3/6
f 496/4/6 497/4/6 498/4/6
f 498/4/6 497/4/6 499/4/6
f 494/3/6 498/3/6 500/3/6
f 500/3/6 498/3/6 501/3/6
f 502/1/6 503/1/6 504/1/6
f 504/1/6 503/1/6 505/1/6
f 506/1/6 507/1/6 508/1/6
f 508/1/6 507/1/6 509/1/6
f 510/4/6 511/4/6 512/4/6
f 512/4/6 511/4/6 513/4/6
f 514/4/6 515/4/6 516/4/6
f 516/4/6 515/4/6 517/4/6
f 518/1/6 519/1/6 520/1/6
f 520/1/6 519/1/6 521/1/6
f 522/4/6 523/4/6 525/4/6
f 524/1/6 525/1/6 526/1/6
f 525/4/6 523/4/6 527/4/6
f 526/1/6 525/1/6 527/1/6
f 527/4/6 523/4/6 528/4/6
f 529/1/6 530/1/6 532/1/6
f 530/4/6 531/4/6 533/4/6
f 532/1/6 530/1/6 533/1/6
f 533/4/6 531/4/6 534/4/6
f 534/4/6 531/4/6 535/4/6
f 536/1/6 537/1/6 538/1/6
f 538/1/6 537/1/6 539/1/6
f 540/1/6 541/1/6 542/1/6
f 542/1/6 541/1/6 543/1/6
f 544/1/6 545/1/6 546/1/6
f 546/1/6 545/1/6 547/1/6
f 548/1/6 549/1/6 550/1/6
f 550/1/6 549/1/6 551/1/6
f 552/1/6 553/1/6 554/1/6
f 554/1/6 553/1/6 555/1/6
f 556/1/6 557/1/6 558/1/6
f 558/1/6 557/1/6 559/1/6
f 560/1/6 561/1/6 562/1/6
f 562/1/6 561/1/6 563/1/6
